<svg width="120" height="24" viewBox="0 0 120 24" fill="none" xmlns="http://www.w3.org/2000/svg">
<g fill="#FFD700">
<path d="M12 2L14.09 8.26L20 8.26L15.45 11.74L17.54 18L12 14.74L6.46 18L8.55 11.74L4 8.26L9.91 8.26L12 2Z"/>
<path d="M36 2L38.09 8.26L44 8.26L39.45 11.74L41.54 18L36 14.74L30.46 18L32.55 11.74L28 8.26L33.91 8.26L36 2Z"/>
<path d="M60 2L62.09 8.26L68 8.26L63.45 11.74L65.54 18L60 14.74L54.46 18L56.55 11.74L52 8.26L57.91 8.26L60 2Z"/>
<path d="M84 2L86.09 8.26L92 8.26L87.45 11.74L89.54 18L84 14.74L78.46 18L80.55 11.74L76 8.26L81.91 8.26L84 2Z"/>
<path d="M108 2L110.09 8.26L116 8.26L111.45 11.74L113.54 18L108 14.74L102.46 18L104.55 11.74L100 8.26L105.91 8.26L108 2Z"/>
</g>
</svg>