<svg width="53" height="15" viewBox="0 0 53 15" fill="none" xmlns="http://www.w3.org/2000/svg">
<g clip-path="url(#clip0_7729_4668)">
<path d="M7.39297 15C11.4523 15 14.743 11.6421 14.743 7.5C14.743 3.35786 11.4523 0 7.39297 0C3.33368 0 0.0429688 3.35786 0.0429688 7.5C0.0429688 11.6421 3.33368 15 7.39297 15Z" fill="#FF492C"/>
<path d="M10.574 5.74508H9.31866C9.35247 5.54408 9.47448 5.43158 9.72144 5.30408L9.95223 5.18408C10.3653 4.96808 10.5858 4.72358 10.5858 4.32458C10.5858 4.07408 10.4903 3.87608 10.3006 3.73358C10.111 3.59108 9.88756 3.52058 9.62589 3.52058C9.42347 3.51815 9.22475 3.57601 9.05406 3.68708C8.88207 3.79508 8.75418 3.93458 8.6748 4.10858L9.03789 4.48058C9.17901 4.18958 9.38334 4.04708 9.65235 4.04708C9.8802 4.04708 10.0199 4.16708 10.0199 4.33358C10.0199 4.47308 9.95223 4.58858 9.69057 4.72358L9.5421 4.79708C9.22017 4.96358 8.99673 5.15408 8.86737 5.37008C8.73801 5.58608 8.6748 5.85758 8.6748 6.18608V6.27608H10.574V5.74508Z" fill="white"/>
<path d="M10.4066 6.8877H8.32799L7.2887 8.72369H9.36728L10.4066 10.5612L11.4459 8.72369L10.4066 6.8877Z" fill="white"/>
<path d="M7.46798 9.94936C6.14498 9.94936 5.06747 8.84986 5.06747 7.49986C5.06747 6.14986 6.14498 5.05036 7.46798 5.05036L8.28971 3.29686C8.01911 3.24195 7.74388 3.21431 7.46798 3.21436C5.14832 3.21436 3.26819 5.13286 3.26819 7.49986C3.26819 9.86686 5.14832 11.7854 7.46798 11.7854C8.35692 11.7871 9.22317 11.4991 9.94052 10.9634L9.03206 9.35536C8.59744 9.73845 8.0423 9.94928 7.46798 9.94936Z" fill="white"/>
</g>
<g clip-path="url(#clip1_7729_4668)">
<path d="M26.0929 15C30.1522 15 33.4429 11.6421 33.4429 7.5C33.4429 3.35786 30.1522 0 26.0929 0C22.0336 0 18.7429 3.35786 18.7429 7.5C18.7429 11.6421 22.0336 15 26.0929 15Z" fill="#04DA8D"/>
<path d="M30.5952 6.50818H27.1668L26.1163 3.24023L25.0513 6.50818L21.6229 6.49359L24.3948 8.50688L23.3298 11.7602L26.1018 9.74695L28.8737 11.7602L27.8087 8.50688L30.5952 6.50818Z" fill="white"/>
<path d="M28.0713 9.25088L27.8378 8.50684L26.1163 9.7469L28.0713 9.25088Z" fill="#E5E7EE"/>
</g>
<g clip-path="url(#clip2_7729_4668)">
<path d="M44.793 15C48.8523 15 52.143 11.6421 52.143 7.5C52.143 3.35786 48.8523 0 44.793 0C40.7337 0 37.443 3.35786 37.443 7.5C37.443 11.6421 40.7337 15 44.793 15Z" fill="#FF6154"/>
<path d="M45.943 3.75H42.318V11.25H43.818V9H45.943C47.393 9 48.568 7.825 48.568 6.375C48.568 4.925 47.393 3.75 45.943 3.75ZM45.943 7.5H43.818V5.25H45.943C46.5642 5.25 47.068 5.75375 47.068 6.375C47.068 6.99625 46.5642 7.5 45.943 7.5Z" fill="white"/>
</g>
<defs>
<clipPath id="clip0_7729_4668">
<rect width="14.7" height="15" fill="white" transform="translate(0.0429688)"/>
</clipPath>
<clipPath id="clip1_7729_4668">
<rect width="14.7" height="15" fill="white" transform="translate(18.7429)"/>
</clipPath>
<clipPath id="clip2_7729_4668">
<rect width="14.7" height="15" fill="white" transform="translate(37.443)"/>
</clipPath>
</defs>
</svg>
