<svg width="84" height="15" viewBox="0 0 84 15" fill="none" xmlns="http://www.w3.org/2000/svg">
<path d="M7.78226 0.0618848C7.82164 -0.0206281 7.93909 -0.0206283 7.97846 0.0618845L10.2812 4.88756C10.297 4.92076 10.3286 4.9437 10.365 4.94851L15.6661 5.64729C15.7567 5.65924 15.793 5.77094 15.7267 5.83388L11.8488 9.51509C11.8221 9.54042 11.8101 9.57753 11.8168 9.61371L12.7903 14.8713C12.807 14.9612 12.7119 15.0302 12.6316 14.9866L7.93221 12.436C7.89987 12.4185 7.86085 12.4185 7.82851 12.436L3.12913 14.9866C3.04878 15.0302 2.95376 14.9612 2.97041 14.8713L3.94395 9.61371C3.95064 9.57753 3.93859 9.54042 3.9119 9.51509L0.0339869 5.83388C-0.0323205 5.77094 0.00397388 5.65924 0.0946153 5.64729L5.39567 4.94851C5.43215 4.9437 5.46372 4.92076 5.47957 4.88756L7.78226 0.0618848Z" fill="#F5A623"/>
<path d="M24.543 0.0618848C24.5824 -0.0206281 24.6998 -0.0206283 24.7392 0.0618845L27.0419 4.88756C27.0577 4.92076 27.0893 4.9437 27.1258 4.94851L32.4268 5.64729C32.5175 5.65924 32.5538 5.77094 32.4875 5.83388L28.6096 9.51509C28.5829 9.54042 28.5708 9.57753 28.5775 9.61371L29.5511 14.8713C29.5677 14.9612 29.4727 15.0302 29.3923 14.9866L24.693 12.436C24.6606 12.4185 24.6216 12.4185 24.5893 12.436L19.8899 14.9866C19.8095 15.0302 19.7145 14.9612 19.7311 14.8713L20.7047 9.61371C20.7114 9.57753 20.6993 9.54042 20.6726 9.51509L16.7947 5.83388C16.7284 5.77094 16.7647 5.65924 16.8554 5.64729L22.1564 4.94851C22.1929 4.9437 22.2245 4.92076 22.2403 4.88756L24.543 0.0618848Z" fill="#F5A623"/>
<path d="M41.3037 0.0618848C41.3431 -0.0206281 41.4606 -0.0206283 41.4999 0.0618845L43.8026 4.88756C43.8185 4.92076 43.8501 4.9437 43.8865 4.94851L49.1876 5.64729C49.2782 5.65924 49.3145 5.77094 49.2482 5.83388L45.3703 9.51509C45.3436 9.54042 45.3316 9.57753 45.3383 9.61371L46.3118 14.8713C46.3284 14.9612 46.2334 15.0302 46.1531 14.9866L41.4537 12.436C41.4214 12.4185 41.3823 12.4185 41.35 12.436L36.6506 14.9866C36.5703 15.0302 36.4752 14.9612 36.4919 14.8713L37.4654 9.61371C37.4721 9.57753 37.4601 9.54042 37.4334 9.51509L33.5555 5.83388C33.4892 5.77094 33.5255 5.65924 33.6161 5.64729L38.9172 4.94851C38.9536 4.9437 38.9852 4.92076 39.0011 4.88756L41.3037 0.0618848Z" fill="#F5A623"/>
<path d="M58.0645 0.0618848C58.1039 -0.0206281 58.2213 -0.0206283 58.2607 0.0618845L60.5634 4.88756C60.5792 4.92076 60.6108 4.9437 60.6473 4.94851L65.9483 5.64729C66.039 5.65924 66.0753 5.77094 66.009 5.83388L62.131 9.51509C62.1044 9.54042 62.0923 9.57753 62.099 9.61371L63.0725 14.8713C63.0892 14.9612 62.9942 15.0302 62.9138 14.9866L58.2144 12.436C58.1821 12.4185 58.1431 12.4185 58.1107 12.436L53.4114 14.9866C53.331 15.0302 53.236 14.9612 53.2526 14.8713L54.2262 9.61371C54.2329 9.57753 54.2208 9.54042 54.1941 9.51509L50.3162 5.83388C50.2499 5.77094 50.2862 5.65924 50.3768 5.64729L55.6779 4.94851C55.7144 4.9437 55.7459 4.92076 55.7618 4.88756L58.0645 0.0618848Z" fill="#F5A623"/>
<path d="M74.8251 0.0618848C74.8645 -0.0206281 74.9819 -0.0206283 75.0213 0.0618845L77.324 4.88756C77.3398 4.92076 77.3714 4.9437 77.4079 4.94851L82.709 5.64729C82.7996 5.65924 82.8359 5.77094 82.7696 5.83388L78.8917 9.51509C78.865 9.54042 78.8529 9.57753 78.8596 9.61371L79.8332 14.8713C79.8498 14.9612 79.7548 15.0302 79.6744 14.9866L74.9751 12.436C74.9427 12.4185 74.9037 12.4185 74.8714 12.436L70.172 14.9866C70.0916 15.0302 69.9966 14.9612 70.0133 14.8713L70.9868 9.61371C70.9935 9.57753 70.9814 9.54042 70.9547 9.51509L67.0768 5.83388C67.0105 5.77094 67.0468 5.65924 67.1375 5.64729L72.4385 4.94851C72.475 4.9437 72.5066 4.92076 72.5224 4.88756L74.8251 0.0618848Z" fill="white"/>
<mask id="mask0_7729_4658" style="mask-type:alpha" maskUnits="userSpaceOnUse" x="67" y="0" width="16" height="15">
<path d="M74.8251 0.0618848C74.8645 -0.0206281 74.9819 -0.0206283 75.0213 0.0618845L77.324 4.88756C77.3398 4.92076 77.3714 4.9437 77.4079 4.94851L82.709 5.64729C82.7996 5.65924 82.8359 5.77094 82.7696 5.83388L78.8917 9.51509C78.865 9.54042 78.8529 9.57753 78.8596 9.61371L79.8332 14.8713C79.8498 14.9612 79.7548 15.0302 79.6744 14.9866L74.9751 12.436C74.9427 12.4185 74.9037 12.4185 74.8714 12.436L70.172 14.9866C70.0916 15.0302 69.9966 14.9612 70.0133 14.8713L70.9868 9.61371C70.9935 9.57753 70.9814 9.54042 70.9547 9.51509L67.0768 5.83388C67.0105 5.77094 67.0468 5.65924 67.1375 5.64729L72.4385 4.94851C72.475 4.9437 72.5066 4.92076 72.5224 4.88756L74.8251 0.0618848Z" fill="white"/>
</mask>
<g mask="url(#mask0_7729_4658)">
<rect x="65.9999" width="13" height="15" fill="#F5A623"/>
</g>
</svg>
